<!DOCTYPE svg PUBLIC "-//W3C//DTD SVG 20010904//EN" "http://www.w3.org/TR/2001/REC-SVG-20010904/DTD/svg10.dtd">
<svg version="1.0" xmlns="http://www.w3.org/2000/svg" width="1389px" height="581px" viewBox="0 0 13890 5810" preserveAspectRatio="xMidYMid meet">
<g id="layer101" fill="#09517e" stroke="none">
 <path d="M9025 5222 c-16 -1 -54 -7 -83 -13 l-54 -11 7 -36 c3 -21 11 -54 16 -74 l9 -37 68 6 c82 7 91 -1 131 -109 l27 -73 -150 -367 c-83 -202 -152 -366 -153 -364 -1 1 -3 25 -4 54 l-2 51 -76 -5 c-65 -5 -81 -2 -108 15 -18 11 -40 35 -49 53 -37 71 -44 127 -44 361 l0 227 -90 0 -90 0 0 -405 0 -405 90 0 90 0 0 40 0 41 35 -35 c52 -52 128 -72 214 -57 36 6 99 13 139 14 l74 2 72 190 c41 105 91 236 112 292 l39 102 74 -197 c41 -108 90 -240 110 -292 l36 -95 98 -3 c53 -1 97 -1 97 2 0 2 -14 37 -31 77 -16 41 -63 155 -104 254 -41 99 -104 252 -140 340 -36 88 -79 192 -95 232 -40 98 -85 168 -123 192 -38 23 -99 38 -142 33z"/>
 <path d="M6387 4910 c-48 -13 -92 -35 -139 -72 l-38 -30 0 46 0 46 -90 0 -90 0 0 -585 0 -585 95 0 95 0 0 226 0 226 40 -35 c53 -45 136 -72 225 -71 228 0 379 150 392 389 15 257 -138 441 -372 451 -44 2 -97 -1 -118 -6z m171 -172 c52 -25 96 -82 117 -151 48 -163 -29 -326 -169 -358 -86 -19 -154 0 -216 59 -38 37 -52 60 -65 106 -40 137 11 293 112 341 79 38 144 39 221 3z"/>
 <path d="M7678 4906 c-209 -56 -266 -319 -93 -430 63 -42 129 -57 277 -65 75 -3 140 -10 143 -13 11 -11 -5 -82 -26 -117 -26 -42 -89 -71 -160 -71 -56 0 -161 29 -211 58 -15 9 -30 14 -32 11 -3 -3 -17 -30 -30 -61 -29 -66 -29 -66 65 -102 101 -38 212 -52 300 -37 95 16 145 39 197 92 79 81 85 112 90 442 l4 287 -96 0 -96 0 0 -35 0 -35 -47 31 c-90 56 -186 72 -285 45z m227 -140 c28 -13 63 -38 78 -55 24 -29 27 -40 27 -112 l0 -80 -92 6 c-120 8 -142 11 -184 31 -90 43 -84 172 9 215 56 25 102 24 162 -5z"/>
 <path d="M4930 4315 l0 -585 95 0 95 0 0 505 0 505 200 0 200 0 0 80 0 80 -295 0 -295 0 0 -585z"/>
 <path d="M5630 4495 l0 -405 95 0 95 0 0 405 0 405 -95 0 -95 0 0 -405z"/>
 <path d="M7020 4495 l0 -405 95 0 95 0 0 37 0 37 28 -26 c46 -44 92 -62 157 -62 91 -1 95 2 95 78 0 96 0 95 -83 89 -64 -4 -76 -2 -107 18 -20 14 -46 46 -60 74 -24 49 -25 56 -28 308 l-4 257 -94 0 -94 0 0 -405z"/>
 <path d="M3985 4877 c-3 -7 -4 -154 -3 -327 l3 -315 328 -3 327 -2 0 330 0 330 -325 0 c-253 0 -327 -3 -330 -13z"/>
 <path d="M1490 3840 l0 -330 1573 2 1572 3 3 328 2 327 -1575 0 -1575 0 0 -330z"/>
 <path d="M5641 3911 c-24 -22 -31 -38 -31 -66 0 -73 43 -115 116 -115 70 0 113 41 114 108 0 35 -6 49 -29 73 -25 25 -37 29 -84 29 -47 0 -60 -4 -86 -29z"/>
 <path d="M2743 3453 c-10 -4 -13 -79 -13 -329 l0 -324 23 -5 c12 -3 441 -4 952 -3 l930 3 0 330 0 330 -940 2 c-517 1 -946 -1 -952 -4z"/>
 <path d="M5122 3395 c-69 -16 -206 -85 -257 -129 l-40 -34 68 -101 c37 -55 73 -101 80 -101 7 0 35 17 64 38 143 108 292 129 357 51 31 -37 33 -77 5 -113 -26 -34 -56 -49 -182 -92 -139 -49 -210 -88 -263 -147 -135 -151 -76 -416 114 -508 115 -56 281 -66 417 -24 73 22 193 87 209 113 7 12 -101 192 -120 199 -7 2 -34 -11 -59 -31 -72 -55 -147 -79 -225 -73 -57 4 -68 9 -93 37 -23 26 -28 39 -23 64 9 47 54 78 183 126 157 57 206 83 264 137 68 63 92 130 87 243 -2 66 -9 96 -28 135 -52 105 -172 191 -299 215 -72 13 -193 11 -259 -5z"/>
 <path d="M7927 3396 c-75 -21 -127 -63 -162 -131 l-30 -59 -3 -328 -3 -328 145 0 146 0 0 248 c0 136 5 265 10 287 17 75 89 106 161 69 57 -29 63 -61 67 -346 l3 -258 145 0 144 0 0 420 0 420 -140 0 -140 0 0 -37 0 -36 -22 20 c-69 63 -214 90 -321 59z"/>
 <path d="M9310 3396 c-85 -22 -156 -80 -184 -148 -20 -47 -21 -164 -2 -209 20 -48 71 -93 139 -124 48 -22 81 -28 212 -38 l155 -11 0 -26 c0 -63 -58 -100 -157 -100 -73 0 -135 15 -201 49 -23 12 -45 21 -50 21 -5 0 -24 -37 -41 -82 -18 -46 -35 -88 -38 -95 -9 -23 125 -69 261 -89 213 -32 382 19 466 140 53 78 60 130 60 433 l0 274 -142 -3 -143 -3 -3 -27 -3 -26 -48 30 c-79 48 -183 61 -281 34z m288 -205 c28 -20 31 -26 34 -91 4 -81 11 -77 -115 -61 -49 7 -76 16 -93 32 -41 39 -25 116 30 140 34 14 110 4 144 -20z"/>
 <path d="M10289 3400 c-87 -22 -149 -85 -168 -170 -6 -25 -11 -138 -11 -252 l0 -208 -60 0 -60 0 0 -110 0 -110 60 0 60 0 0 -110 0 -110 151 0 150 0 -3 110 -3 110 93 0 92 0 0 110 0 110 -92 0 -93 0 3 182 c4 222 4 223 99 215 l62 -6 5 42 c3 23 7 72 10 109 l5 66 -32 11 c-43 15 -223 23 -268 11z"/>
 <path d="M11427 3400 c-72 -12 -170 -63 -228 -117 -166 -155 -169 -454 -7 -616 148 -148 431 -175 626 -61 184 108 252 365 150 571 -86 175 -300 263 -541 223z m192 -245 c133 -68 132 -309 -2 -374 -55 -27 -92 -27 -147 2 -127 64 -134 282 -11 364 40 27 116 31 160 8z"/>
 <path d="M5820 2970 l0 -420 145 0 145 0 0 420 0 420 -145 0 -145 0 0 -420z"/>
 <path d="M6270 2970 l0 -420 145 0 145 0 0 41 0 41 39 -31 c63 -50 107 -65 192 -64 106 1 171 31 222 103 l16 23 26 -32 c89 -105 292 -129 413 -47 58 38 99 114 112 206 5 36 10 185 10 333 l0 267 -150 0 -150 0 0 -266 c0 -292 -6 -325 -59 -346 -32 -12 -79 -3 -104 19 -42 39 -47 72 -47 339 l0 254 -150 0 -150 0 0 -260 c0 -280 -5 -311 -51 -344 -61 -42 -137 7 -158 102 -6 31 -11 148 -11 277 l0 225 -145 0 -145 0 0 -420z"/>
 <path d="M8710 2805 l0 -585 150 0 150 0 0 585 0 585 -150 0 -150 0 0 -585z"/>
 <path d="M10670 2970 l0 -420 150 0 150 0 0 420 0 420 -150 0 -150 0 0 -420z"/>
 <path d="M12120 2970 l0 -420 145 0 145 0 0 46 0 46 45 -40 c55 -48 117 -67 211 -65 90 1 160 30 213 88 69 74 74 107 79 458 l4 307 -151 0 -150 0 -3 -274 c-3 -261 -4 -276 -24 -303 -28 -38 -81 -51 -131 -32 -30 11 -43 25 -63 64 -24 49 -25 57 -28 298 l-4 247 -144 0 -144 0 0 -420z"/>
 <path d="M910 2410 l0 -330 1865 0 1865 0 -2 328 -3 327 -1862 3 -1863 2 0 -330z"/>
 <path d="M5881 2452 c-100 -50 -106 -186 -12 -249 26 -17 48 -23 93 -23 65 0 100 14 138 55 21 23 25 36 25 90 0 54 -4 67 -25 90 -14 15 -37 33 -52 41 -38 20 -126 18 -167 -4z"/>
 <path d="M10729 2450 c-51 -27 -73 -65 -73 -126 0 -94 56 -144 163 -144 106 0 161 50 161 145 0 25 -7 59 -15 75 -33 65 -159 91 -236 50z"/>
 <path d="M8624 2190 c-23 -5 -60 -14 -83 -20 -47 -12 -46 -1 -6 -140 l21 -75 76 4 77 3 20 -33 c41 -66 41 -64 -114 -445 -80 -198 -152 -374 -160 -392 -8 -18 -15 -37 -15 -43 0 -6 56 -8 152 -7 l153 3 32 90 c17 50 55 159 85 242 46 134 68 179 68 142 0 -6 37 -116 82 -245 l82 -234 154 0 c119 0 153 3 149 13 -228 559 -383 932 -402 972 -60 122 -140 176 -259 174 -39 -1 -90 -5 -112 -9z"/>
 <path d="M2110 1690 l0 -330 1265 0 1265 0 0 330 0 330 -1265 0 -1265 0 0 -330z"/>
 <path d="M6097 1885 c-134 -37 -237 -119 -290 -232 -30 -65 -32 -74 -32 -189 0 -119 0 -121 38 -196 79 -161 219 -238 434 -238 80 0 116 5 171 24 188 63 292 209 292 410 0 214 -119 366 -327 420 -73 19 -219 20 -286 1z m230 -245 c41 -25 63 -59 80 -123 39 -153 -74 -293 -209 -256 -88 23 -135 107 -125 226 9 113 67 173 166 173 38 0 66 -6 88 -20z"/>
 <path d="M7998 1885 c-199 -55 -318 -212 -318 -420 1 -125 32 -211 107 -296 87 -96 196 -139 355 -139 107 0 179 16 261 56 26 14 47 30 47 37 -1 19 -55 195 -63 203 -4 4 -34 -8 -68 -26 -156 -83 -306 -32 -340 116 -21 93 27 197 107 230 73 31 185 10 266 -48 22 -15 32 -18 38 -9 16 26 62 201 57 215 -8 20 -120 71 -185 85 -69 14 -205 13 -264 -4z"/>
 <path d="M4910 1295 l0 -585 253 0 c272 0 335 8 425 54 59 30 126 101 154 164 18 39 22 67 22 157 0 102 -2 114 -29 168 -36 73 -108 139 -183 168 -47 19 -81 24 -202 27 l-145 4 3 214 3 214 -151 0 -150 0 0 -585z m479 -83 c55 -27 76 -64 75 -130 0 -104 -48 -142 -183 -142 l-81 0 0 145 0 145 78 0 c54 0 87 -5 111 -18z"/>
 <path d="M6822 1298 l3 -583 148 -3 147 -3 0 586 0 585 -150 0 -150 0 2 -582z"/>
 <path d="M7280 1460 l0 -420 145 0 145 0 0 420 0 420 -145 0 -145 0 0 -420z"/>
 <path d="M3992 1302 c-9 -7 -12 -80 -10 -333 l3 -324 325 0 325 0 0 330 0 330 -315 2 c-173 2 -321 -1 -328 -5z"/>
 <path d="M7345 946 c-16 -7 -41 -26 -55 -41 -21 -22 -25 -36 -25 -90 0 -54 4 -67 25 -90 38 -41 73 -55 135 -55 98 0 153 45 162 131 4 46 1 59 -19 89 -13 19 -39 43 -58 52 -41 21 -122 23 -165 4z"/>
 </g>
<g id="layer102" fill="#1691ce" stroke="none">
 <path d="M9030 5223 c-14 -2 -51 -8 -83 -15 l-59 -11 7 -36 c3 -20 11 -53 16 -74 l10 -38 47 7 c94 15 109 4 150 -107 l28 -75 -150 -368 c-93 -227 -152 -360 -154 -345 -1 13 -5 38 -8 56 l-5 31 -72 -4 c-84 -6 -124 12 -153 68 -37 71 -44 127 -44 361 l0 227 -90 0 -90 0 0 -405 0 -405 90 0 90 0 0 40 0 41 37 -36 c53 -52 126 -71 212 -56 36 6 99 13 139 14 l74 2 59 155 c182 477 162 432 176 397 7 -18 48 -129 93 -247 45 -118 89 -235 99 -260 l17 -45 97 -3 c53 -1 97 -1 97 2 0 2 -9 26 -21 53 -12 26 -49 118 -84 203 -65 159 -139 338 -239 583 -67 164 -105 229 -149 256 -37 23 -100 38 -137 34z"/>
 <path d="M6393 4910 c-53 -11 -110 -41 -150 -79 l-33 -30 0 50 0 49 -90 0 -90 0 0 -585 0 -585 95 0 95 0 0 226 0 226 31 -27 c142 -119 382 -105 512 29 86 88 123 203 114 347 -14 219 -160 373 -364 384 -43 2 -97 0 -120 -5z m164 -172 c149 -69 180 -324 54 -449 -89 -89 -219 -92 -315 -8 -63 56 -89 128 -84 229 11 200 175 308 345 228z"/>
 <path d="M7693 4910 c-76 -16 -141 -62 -180 -128 -22 -37 -26 -57 -26 -117 0 -77 9 -101 62 -158 59 -65 169 -95 350 -98 l113 -1 -6 -46 c-13 -99 -76 -152 -182 -152 -67 0 -151 21 -203 51 -39 23 -44 20 -76 -49 -27 -59 -28 -58 65 -95 138 -54 310 -57 416 -6 60 29 121 95 146 159 20 52 21 73 22 340 l1 285 -90 0 -90 0 -1 -28 c-1 -15 -3 -29 -5 -32 -3 -2 -24 9 -48 26 -79 53 -167 69 -268 49z m189 -132 c22 -6 59 -29 84 -51 l44 -39 0 -84 0 -85 -92 6 c-120 8 -142 11 -184 31 -90 43 -84 172 9 215 49 22 84 24 139 7z"/>
 <path d="M4930 4315 l0 -585 95 0 95 0 0 505 0 505 193 1 c105 1 195 1 200 0 4 0 7 35 7 79 l0 80 -295 0 -295 0 0 -585z"/>
 <path d="M5632 4498 l3 -403 93 -3 92 -3 0 406 0 405 -95 0 -95 0 2 -402z"/>
 <path d="M7020 4495 l0 -405 95 0 95 0 0 41 0 42 21 -27 c33 -42 96 -69 164 -70 91 -1 95 2 95 78 0 96 0 95 -83 89 -64 -4 -76 -2 -107 18 -20 14 -46 46 -60 74 -24 49 -25 56 -28 308 l-3 257 -95 0 -94 0 0 -405z"/>
 <path d="M3985 4877 c-3 -7 -4 -154 -3 -327 l3 -315 323 -3 322 -2 0 330 0 330 -320 0 c-249 0 -322 -3 -325 -13z"/>
 <path d="M1490 3840 l0 -330 1570 0 1570 0 0 330 0 330 -1570 0 -1570 0 0 -330z"/>
 <path d="M5661 3926 c-45 -25 -63 -88 -40 -139 15 -32 60 -57 104 -57 71 0 114 41 115 108 0 35 -6 49 -29 73 -25 24 -37 29 -78 29 -26 -1 -59 -7 -72 -14z"/>
 </g>

</svg>